<?xml version="1.0" standalone="no"?>
<!DOCTYPE svg PUBLIC "-//W3C//DTD SVG 20010904//EN"
 "http://www.w3.org/TR/2001/REC-SVG-20010904/DTD/svg10.dtd">
<svg version="1.0" xmlns="http://www.w3.org/2000/svg"
 width="900.000000pt" height="650.000000pt" viewBox="0 0 900.000000 650.000000"
 preserveAspectRatio="xMidYMid meet">

<g transform="translate(0.000000,650.000000) scale(0.100000,-0.100000)"
fill="#000000" stroke="none">
<path d="M4665 5389 c-44 -10 -99 -23 -123 -29 -24 -6 -75 -26 -115 -44 -187
-89 -286 -183 -363 -344 -63 -131 -77 -194 -78 -337 -1 -129 15 -194 54 -230
17 -15 20 -31 20 -104 0 -47 -6 -112 -14 -144 -9 -39 -10 -57 -3 -54 6 2 21
41 32 88 29 113 64 217 77 225 5 3 28 -11 49 -32 34 -33 47 -39 82 -39 48 0
137 34 137 52 0 15 -78 79 -113 92 -35 14 -88 14 -121 1 -14 -5 -26 -8 -26 -7
0 1 -5 39 -10 84 -24 191 22 342 144 467 35 36 68 66 73 66 6 0 -1 -22 -13
-49 -64 -133 -71 -292 -18 -397 27 -54 76 -105 89 -92 4 3 -5 18 -19 32 -33
36 -54 84 -68 152 -20 100 16 257 83 358 46 69 62 60 33 -20 -55 -152 -53
-295 8 -427 36 -79 118 -160 118 -117 0 6 -4 10 -10 10 -15 0 -65 80 -90 145
-34 88 -35 260 -1 363 13 40 27 75 32 78 5 3 29 -15 53 -40 52 -51 160 -254
216 -406 20 -52 48 -121 63 -154 15 -32 27 -60 27 -61 0 -1 -18 4 -41 11 -52
18 -98 10 -148 -26 -38 -28 -61 -70 -37 -70 6 0 16 -10 21 -22 6 -13 27 -31
47 -41 49 -24 108 -9 156 39 19 19 36 33 37 32 1 -2 9 -16 18 -33 9 -16 43
-58 76 -93 49 -51 61 -70 61 -95 0 -51 -24 -124 -78 -240 -66 -145 -59 -173
45 -176 30 -1 165 39 205 60 21 11 48 60 48 87 0 10 12 34 26 53 42 56 92 163
120 256 24 79 27 110 31 288 8 309 -16 440 -106 578 -87 132 -200 226 -340
283 -119 48 -217 55 -346 23z m-367 -916 c2 -7 -3 -15 -10 -18 -20 -8 -71 13
-63 26 9 14 67 7 73 -8z m507 -18 c0 -12 -84 -25 -91 -14 -8 13 29 29 61 26
17 -1 30 -6 30 -12z m-465 -15 c0 -5 -7 -10 -15 -10 -8 0 -15 5 -15 10 0 6 7
10 15 10 8 0 15 -4 15 -10z m520 0 c0 -5 -7 -10 -15 -10 -8 0 -15 5 -15 10 0
6 7 10 15 10 8 0 15 -4 15 -10z"/>
<path d="M4750 4068 c-136 -23 -236 -30 -367 -24 -148 6 -153 4 -133 -35 16
-29 156 -107 215 -119 93 -19 219 26 299 107 66 67 62 85 -14 71z"/>
<path d="M5356 3856 c-28 -53 -98 -115 -152 -135 -30 -12 -54 -28 -61 -43 -20
-39 -29 -269 -12 -306 12 -28 18 -31 88 -40 253 -35 374 -56 434 -76 l69 -23
-7 61 c-16 149 -81 339 -147 426 -38 51 -150 154 -180 165 -8 3 -21 -9 -32
-29z"/>
</g>
</svg>
